<?xml version="1.0" encoding="UTF-8" standalone="no"?>
<!DOCTYPE svg PUBLIC "-//W3C//DTD SVG 1.1//EN" "http://www.w3.org/Graphics/SVG/1.1/DTD/svg11.dtd">
<svg width="100%" height="100%" viewBox="0 0 3000 3000" version="1.1" xmlns="http://www.w3.org/2000/svg" xmlns:xlink="http://www.w3.org/1999/xlink" xml:space="preserve" xmlns:serif="http://www.serif.com/" style="fill-rule:evenodd;clip-rule:evenodd;stroke-linejoin:round;stroke-miterlimit:2;">
    <g transform="matrix(19.2747,19.2747,-19.2747,19.2747,17778.7,-19267.2)">
        <g opacity="0.5">
            <path d="M67.515,976.566C63.796,972.614 63.107,966.154 63.107,960.982C63.107,956.058 63.714,949.688 67.132,945.805C70.987,941.426 79.395,940.685 84.737,939.887C104.241,936.975 124.862,937.275 144.394,939.76C150.839,940.579 158.835,941.313 164.494,944.844C168.378,947.268 169.618,952.471 170.121,956.729C170.737,961.95 170.421,967.842 168.183,972.676C165.3,978.902 157.482,980.004 151.41,981.124C141.908,982.876 132.185,983.529 122.539,983.811C111.225,984.142 99.828,983.902 88.579,982.586C84.186,982.072 79.777,981.384 75.505,980.216C72.774,979.47 69.614,978.584 67.515,976.566C66.007,975.117 63.706,977.412 65.217,978.865C70.107,983.565 78.704,984.49 85.065,985.385C95.753,986.887 106.605,987.281 117.388,987.164C128.279,987.046 139.239,986.415 149.997,984.653C156.208,983.636 164.935,982.552 169.17,977.27C172.473,973.151 173.435,967.284 173.59,962.151C173.752,956.775 173.021,950.643 170.097,945.997C166.362,940.062 158.069,938.744 151.715,937.606C130.613,933.825 107.95,933.612 86.712,936.358C79.784,937.255 69.295,938.073 64.467,943.946C60.571,948.685 59.75,955.88 59.865,961.791C59.979,967.655 61.047,974.433 65.217,978.865C66.653,980.392 68.948,978.09 67.515,976.566Z" style="fill-rule:nonzero;"/>
            <path d="M100.556,948.681C103.29,946.429 107.481,945.807 110.878,945.428C115.048,944.962 119.332,944.973 123.491,945.54C126.666,945.973 130.912,946.601 133.266,949.022C135.775,951.604 136.358,956.205 136.52,959.614C136.694,963.303 136.51,968.018 134.216,971.114C132.247,973.773 128.095,974.438 125.04,974.939C120.579,975.67 115.952,975.727 111.456,975.317C107.979,975.001 103.608,974.495 100.64,972.456C97.298,970.159 96.908,964.795 96.909,961.128C96.909,957.064 97.436,951.663 100.556,948.681C102.071,947.233 99.771,944.937 98.258,946.383C92.356,952.024 92.117,965.215 95.957,971.985C97.984,975.561 101.931,976.919 105.753,977.735C111.052,978.868 116.623,979.058 122.009,978.567C126.278,978.18 131.286,977.548 134.878,974.985C138.255,972.577 139.284,968.007 139.662,964.117C140.118,959.424 139.667,954.175 137.635,949.862C135.902,946.185 132.798,944.417 128.996,943.342C123.563,941.807 117.619,941.578 112.023,942.063C107.3,942.474 102.029,943.277 98.258,946.383C96.642,947.714 98.953,950.001 100.556,948.681Z" style="fill-rule:nonzero;"/>
            <path d="M84.897,949.421C86.988,949.421 86.992,946.171 84.897,946.171C82.806,946.171 82.803,949.421 84.897,949.421Z" style="fill-rule:nonzero;"/>
            <path d="M84.897,961.958C86.988,961.958 86.992,958.708 84.897,958.708C82.806,958.708 82.803,961.958 84.897,961.958Z" style="fill-rule:nonzero;"/>
            <path d="M85.431,974.494C87.522,974.494 87.525,971.244 85.431,971.244C83.339,971.244 83.336,974.494 85.431,974.494Z" style="fill-rule:nonzero;"/>
            <path d="M74.887,955.499C76.978,955.499 76.981,952.249 74.887,952.249C72.796,952.249 72.792,955.499 74.887,955.499Z" style="fill-rule:nonzero;"/>
            <path d="M74.887,968.036C76.978,968.036 76.981,964.786 74.887,964.786C72.796,964.786 72.792,968.036 74.887,968.036Z" style="fill-rule:nonzero;"/>
            <path d="M148.567,974.494C150.658,974.494 150.662,971.244 148.567,971.244C146.476,971.244 146.473,974.494 148.567,974.494Z" style="fill-rule:nonzero;"/>
            <path d="M148.567,961.958C150.658,961.958 150.662,958.708 148.567,958.708C146.476,958.708 146.473,961.958 148.567,961.958Z" style="fill-rule:nonzero;"/>
            <path d="M148.034,949.421C150.125,949.421 150.128,946.171 148.034,946.171C145.942,946.171 145.939,949.421 148.034,949.421Z" style="fill-rule:nonzero;"/>
            <path d="M158.578,968.416C160.668,968.416 160.672,965.166 158.578,965.166C156.486,965.166 156.483,968.416 158.578,968.416Z" style="fill-rule:nonzero;"/>
            <path d="M158.578,955.879C160.668,955.879 160.672,952.629 158.578,952.629C156.486,952.629 156.483,955.879 158.578,955.879Z" style="fill-rule:nonzero;"/>
        </g>
    </g>
</svg>
