<?xml version="1.0" encoding="UTF-8" standalone="no"?>
<!DOCTYPE svg PUBLIC "-//W3C//DTD SVG 1.1//EN" "http://www.w3.org/Graphics/SVG/1.1/DTD/svg11.dtd">
<svg width="100%" height="100%" viewBox="0 0 3000 3000" version="1.1" xmlns="http://www.w3.org/2000/svg" xmlns:xlink="http://www.w3.org/1999/xlink" xml:space="preserve" xmlns:serif="http://www.serif.com/" style="fill-rule:evenodd;clip-rule:evenodd;stroke-linejoin:round;stroke-miterlimit:2;">
    <g transform="matrix(6.58875,3.80401,-3.80401,6.58875,-4096.73,-14926.8)">
        <g opacity="0.5">
            <g transform="matrix(4.16667,0,0,4.16667,0,-2492.23)">
                <path d="M435.257,976.867C424.174,988.489 403.997,989.232 391.048,980.249C383.893,975.286 377.737,965.137 380.74,956.205C382.142,952.039 386.059,948.613 390.613,948.942C391.752,949.024 393.115,949.332 394.139,949.847C394.799,950.179 395.844,950.953 396.037,951.788C396.351,953.143 396.045,953.013 394.713,952.775C392.892,952.451 392.711,951.415 392.444,949.722C392.217,948.281 392.21,946.782 392.455,945.341C393.312,940.297 397.274,935.856 402.568,935.483C403.659,935.407 404.817,935.488 405.863,935.821C406.745,936.102 408.439,937.146 408.679,938.208C408.992,939.598 408.428,939.699 407.335,939.561C404.881,939.253 405.17,935.682 405.53,933.757C406.829,926.822 412.703,917.548 420.591,917.465C427.014,917.396 428.814,925.111 429.375,930.182C429.669,932.838 429.819,935.665 429.524,938.331C429.405,939.411 429.067,941.742 427.833,942.033C427.026,942.225 425.954,941.085 425.866,940.562C425.672,939.409 427.049,938.12 427.832,937.528C430.07,935.837 433.126,935.718 435.626,936.909C444.804,941.283 443,955.293 434.734,959.519C433.836,959.978 430.548,961.301 429.741,960.159C429.171,959.352 429.943,957.176 430.499,956.775C431.113,956.332 432.212,956.378 432.92,956.433C435.552,956.635 437.935,958.502 439.241,960.736C442.423,966.171 438.956,972.701 435.257,976.867C433.872,978.427 436.163,980.733 437.555,979.165C442.249,973.879 446.032,965.885 442.048,959.096C439.217,954.27 431.03,950.258 426.594,955.556C424.879,957.602 425.129,960.439 427.099,962.229C429.38,964.303 432.652,963.945 435.285,962.833C441.04,960.402 444.682,954.372 445.029,948.243C445.394,941.813 441.58,935.121 435.169,933.271C429.862,931.739 421.56,935.235 422.648,941.811C423.041,944.186 425.019,945.788 427.445,945.508C431.091,945.088 432.489,941.532 432.774,938.331C433.23,933.232 432.798,927.558 431.044,922.729C429.519,918.529 426.575,914.781 421.87,914.281C415.463,913.601 410.042,918.166 406.641,923.126C403.438,927.797 399.99,935.587 403.406,941.002C406.426,945.789 413.225,942.831 411.813,937.345C409.938,930.055 399.287,931.798 394.885,935.156C389.593,939.195 386.909,948.227 390.579,954.179C393.586,959.058 400.797,956.885 399.171,950.924C397.443,944.594 387.812,944.785 383.407,947.651C376.544,952.117 375.664,961.089 378.086,968.297C380.681,976.017 386.654,982.208 393.964,985.651C407.983,992.255 426.548,990.707 437.555,979.165C438.998,977.651 436.704,975.35 435.257,976.867Z" style="fill:rgb(16,20,22);fill-rule:nonzero;"/>
            </g>
            <g transform="matrix(4.16667,0,0,4.16667,0,-2492.23)">
                <path d="M413.336,949.231C409.483,967.43 401.533,984.517 390.095,999.189C388.824,1000.82 391.107,1003.14 392.393,1001.49C404.186,986.361 412.493,968.877 416.47,950.096C416.901,948.055 413.77,947.183 413.336,949.231Z" style="fill:rgb(16,20,22);fill-rule:nonzero;"/>
            </g>
        </g>
    </g>
</svg>
