<?xml version="1.0" encoding="UTF-8" standalone="no"?>
<!DOCTYPE svg PUBLIC "-//W3C//DTD SVG 1.1//EN" "http://www.w3.org/Graphics/SVG/1.1/DTD/svg11.dtd">
<svg width="100%" height="100%" viewBox="0 0 3000 3000" version="1.1" xmlns="http://www.w3.org/2000/svg" xmlns:xlink="http://www.w3.org/1999/xlink" xml:space="preserve" xmlns:serif="http://www.serif.com/" style="fill-rule:evenodd;clip-rule:evenodd;stroke-linejoin:round;stroke-miterlimit:2;">
    <g transform="matrix(28.9538,0,0,28.9538,-1936.89,-30457.6)">
        <g opacity="0.5">
            <path d="M108.276,1137.8C114.902,1134.12 120.961,1129.34 126.741,1124.47C133.951,1118.39 140.82,1111.82 146.924,1104.62C151.643,1099.06 156.601,1092.78 158.674,1085.66C161.012,1077.63 156.145,1069.78 149.372,1065.57C142.782,1061.48 136.201,1063.11 129.843,1066.65C122.362,1070.81 115.758,1076.66 109.666,1082.61C98.448,1093.58 86.43,1106.5 81.307,1121.63C79.76,1126.2 78.404,1131.06 78.165,1135.9C78.02,1138.84 78.348,1142.13 81.334,1143.49C84.96,1145.14 89.885,1144 93.564,1143.16C98.64,1142.01 103.678,1140.25 108.276,1137.8C110.122,1136.81 108.482,1134 106.636,1134.99C102.906,1136.98 98.885,1138.42 94.806,1139.51C91.411,1140.42 87.098,1141.66 83.571,1140.8C78.145,1139.47 83.318,1125.82 84.441,1122.5C88.919,1109.27 99.118,1098.07 108.677,1088.21C114.261,1082.45 120.215,1076.9 126.84,1072.36C131.458,1069.18 137.647,1065.12 143.536,1066.53C151.314,1068.39 157.87,1077.13 155.463,1085.05C153.503,1091.5 148.918,1097.27 144.626,1102.33C138.784,1109.21 132.238,1115.52 125.374,1121.38C119.524,1126.37 113.379,1131.24 106.636,1134.99C104.807,1136.01 106.444,1138.81 108.276,1137.8Z" style="fill:rgb(16,20,22);fill-rule:nonzero;"/>
            <path d="M80.132,1131.05C83.822,1134.73 87.511,1138.42 91.201,1142.1C92.683,1143.58 94.982,1141.28 93.499,1139.8C89.809,1136.12 86.12,1132.44 82.43,1128.75C80.948,1127.27 78.649,1129.57 80.132,1131.05Z" style="fill:rgb(16,20,22);fill-rule:nonzero;"/>
            <path d="M86.251,1117.97C87.614,1115.71 90.46,1112.32 93.497,1113.97C97.109,1115.93 93.638,1119.17 92.311,1121.27C91.299,1122.86 93.546,1124.47 94.863,1123.24C95.398,1122.73 95.949,1122.25 96.581,1121.86C98.388,1120.76 98.506,1120.71 100.175,1122.41C101.803,1124.07 101.868,1123.74 100.858,1125.24C100.27,1126.12 99.593,1126.9 98.857,1127.65C97.619,1128.93 99.272,1131.31 100.827,1130.21C102.658,1128.91 106.512,1126.89 108.463,1128.99C110.491,1131.17 107.998,1133.87 106.293,1135.23C104.658,1136.53 106.971,1138.82 108.591,1137.53C111.597,1135.14 113.877,1131 111.351,1127.45C108.418,1123.33 102.687,1124.92 99.186,1127.4C99.843,1128.25 100.5,1129.1 101.156,1129.95C103.873,1127.16 107.25,1122.55 103.534,1119.15C100.101,1116 95.464,1118.21 92.564,1120.94C93.416,1121.59 94.266,1122.25 95.117,1122.91C96.46,1120.79 98.382,1119.29 98.39,1116.58C98.397,1114.32 97.101,1112.26 95.137,1111.16C90.41,1108.53 85.806,1112.41 83.444,1116.33C82.363,1118.13 85.172,1119.77 86.251,1117.97Z" style="fill:rgb(16,20,22);fill-rule:nonzero;"/>
            <path d="M131.676,1080.8C118.044,1093.43 104.656,1106.42 92.773,1120.73C91.447,1122.33 93.733,1124.64 95.072,1123.03C106.954,1108.72 120.342,1095.72 133.974,1083.1C135.512,1081.68 133.21,1079.38 131.676,1080.8Z" style="fill:rgb(16,20,22);fill-rule:nonzero;"/>
            <path d="M140.502,1090.14C127.508,1103.54 113.602,1116.12 98.895,1127.62C97.249,1128.9 99.563,1131.19 101.193,1129.91C115.9,1118.42 129.806,1105.83 142.8,1092.43C144.257,1090.93 141.961,1088.63 140.502,1090.14Z" style="fill:rgb(16,20,22);fill-rule:nonzero;"/>
            <path d="M150.681,1097.48C142.06,1088.88 133.438,1080.27 124.817,1071.66C123.335,1070.18 121.036,1072.48 122.519,1073.96C131.14,1082.57 139.761,1091.17 148.383,1099.78C149.865,1101.26 152.164,1098.96 150.681,1097.48Z" style="fill:rgb(16,20,22);fill-rule:nonzero;"/>
        </g>
    </g>
</svg>
