<?xml version="1.0" encoding="UTF-8" standalone="no"?>
<!DOCTYPE svg PUBLIC "-//W3C//DTD SVG 1.1//EN" "http://www.w3.org/Graphics/SVG/1.1/DTD/svg11.dtd">
<svg width="100%" height="100%" viewBox="0 0 3000 3000" version="1.1" xmlns="http://www.w3.org/2000/svg" xmlns:xlink="http://www.w3.org/1999/xlink" xml:space="preserve" xmlns:serif="http://www.serif.com/" style="fill-rule:evenodd;clip-rule:evenodd;stroke-linejoin:round;stroke-miterlimit:2;">
    <g transform="matrix(18.8203,-18.8203,18.8203,18.8203,-29324,-3847.63)">
        <g opacity="0.5">
            <path d="M650.396,924.026C650.557,927.003 652.786,929.521 655.893,929.521C658.888,929.521 661.375,927.009 661.389,924.026C661.402,921.103 658.995,918.669 656.104,918.541C652.915,918.4 650.561,920.977 650.396,924.026C650.284,926.116 653.534,926.109 653.646,924.026C653.802,921.145 658.139,921.123 658.139,924.026C658.139,926.933 653.802,926.905 653.646,924.026C653.534,921.945 650.283,921.933 650.396,924.026Z" style="fill:rgb(16,20,22);fill-rule:nonzero;"/>
            <path d="M692.301,924.026C692.461,927.003 694.69,929.521 697.797,929.521C700.792,929.521 703.279,927.009 703.293,924.026C703.307,921.103 700.899,918.669 698.008,918.541C694.82,918.4 692.465,920.977 692.301,924.026C692.188,926.116 695.438,926.109 695.551,924.026C695.706,921.145 700.043,921.123 700.043,924.026C700.043,926.933 695.706,926.905 695.551,924.026C695.438,921.945 692.188,921.933 692.301,924.026Z" style="fill:rgb(16,20,22);fill-rule:nonzero;"/>
            <path d="M660.521,926.243C666.855,928.594 671.425,933.241 674.563,939.133C675.546,940.979 678.353,939.339 677.368,937.492C673.814,930.82 668.517,925.755 661.385,923.109C659.421,922.381 658.573,925.52 660.521,926.243Z" style="fill:rgb(16,20,22);fill-rule:nonzero;"/>
            <path d="M693.494,923.109C686.381,925.748 681.087,930.796 677.533,937.447C676.548,939.291 679.353,940.935 680.34,939.088C683.477,933.217 688.04,928.587 694.357,926.243C696.302,925.521 695.461,922.379 693.494,923.109Z" style="fill:rgb(16,20,22);fill-rule:nonzero;"/>
            <path d="M670.662,947.436C664.689,935.243 646.701,927.772 636.235,939.211C627.662,948.581 626.447,965.909 639.537,971.684C639.288,971.071 639.039,970.46 638.791,969.848C636.146,976.253 634.297,985.176 640.48,990.18C645.479,994.226 654.221,995.809 659.951,992.536C662.895,990.854 665.209,988.157 666.971,985.301C668.726,982.456 670.694,979.187 670.083,975.818C668.48,966.985 668.824,957.424 670.826,948.688C671.293,946.652 668.16,945.783 667.692,947.824C666.242,954.152 665.736,960.705 665.967,967.186C666.075,970.223 666.417,973.214 666.865,976.216C667.318,979.255 664.881,982.817 663.109,985.241C658.867,991.045 652.506,992.193 645.942,989.589C637.554,986.258 639.098,977.557 641.925,970.712C642.17,970.117 641.772,969.14 641.178,968.877C635.583,966.409 632.793,961.984 632.953,955.906C633.089,950.794 635.054,945.306 638.533,941.51C647.64,931.573 662.8,938.755 667.855,949.077C668.776,950.955 671.58,949.31 670.662,947.436Z" style="fill:rgb(16,20,22);fill-rule:nonzero;"/>
            <path d="M715.235,937.186C708.235,932.035 698.911,932.782 691.817,937.408C688.314,939.693 685.37,942.829 683.456,946.561C682.542,948.343 683.096,949.554 683.446,951.468C683.944,954.191 684.232,956.95 684.39,959.713C684.686,964.914 684.563,970.208 683.69,975.352C683.305,977.629 683.351,978.265 684.266,980.447C685.152,982.56 686.194,984.61 687.505,986.494C692.384,993.509 699.668,995.768 707.784,993.02C712.021,991.587 715.802,988.887 716.955,984.362C718.174,979.584 716.729,974.277 714.898,969.848C714.649,970.46 714.401,971.071 714.152,971.684C721.035,968.647 724.424,962.504 723.947,955.074C723.528,948.536 720.688,941.673 715.564,937.44C713.964,936.119 711.652,938.405 713.267,939.739C717.542,943.269 720.039,948.777 720.627,954.239C721.342,960.875 718.732,966.133 712.512,968.877C711.926,969.135 711.516,970.109 711.765,970.712C713.515,974.948 715.508,980.918 713.17,985.282C711.003,989.326 705.218,990.904 700.942,990.972C695.753,991.053 692.138,987.878 689.524,983.661C688.388,981.826 686.757,979.273 686.655,977.148C686.569,975.337 687.286,973.18 687.457,971.352C687.9,966.611 687.878,961.815 687.447,957.075C687.251,954.909 686.972,952.743 686.58,950.604C686.133,948.163 686.716,947.071 688.243,945.06C694.104,937.34 705.406,933.966 713.596,939.993C715.281,941.234 716.904,938.415 715.235,937.186Z" style="fill:rgb(16,20,22);fill-rule:nonzero;"/>
            <path d="M679.623,985.893C678.173,987.024 675.058,986.773 673.773,985.587C672.815,984.7 672.201,983.178 671.732,981.995C670.487,978.854 669.901,975.407 669.55,972.062C668.769,964.635 669.009,956.868 670.622,949.562C671.218,946.862 671.923,943.51 673.667,941.275C674.766,939.869 676.841,939.483 678.553,940.117C680,940.652 680.645,942.211 681.232,943.555C684.03,949.944 684.532,957.546 684.525,964.427C684.519,970.965 684.477,980.793 679.623,985.893C678.182,987.408 680.477,989.711 681.922,988.191C687.297,982.542 687.693,972.518 687.771,965.206C687.857,957.064 687.439,946.7 682.828,939.636C680.815,936.552 676.212,935.675 672.973,937.48C670.17,939.043 668.944,943.271 668.129,946.134C665.541,955.217 665.286,965.36 666.623,974.667C667.211,978.756 668.125,983.225 670.529,986.68C673.038,990.284 678.473,990.881 681.922,988.191C683.569,986.907 681.255,984.622 679.623,985.893Z" style="fill:rgb(16,20,22);fill-rule:nonzero;"/>
        </g>
    </g>
</svg>
