<?xml version="1.0" encoding="UTF-8" standalone="no"?>
<!DOCTYPE svg PUBLIC "-//W3C//DTD SVG 1.1//EN" "http://www.w3.org/Graphics/SVG/1.1/DTD/svg11.dtd">
<svg width="100%" height="100%" viewBox="0 0 3000 3000" version="1.1" xmlns="http://www.w3.org/2000/svg" xmlns:xlink="http://www.w3.org/1999/xlink" xml:space="preserve" xmlns:serif="http://www.serif.com/" style="fill-rule:evenodd;clip-rule:evenodd;stroke-linejoin:round;stroke-miterlimit:2;">
    <g transform="matrix(24.2703,0,0,24.2703,-15110.2,-11276.5)">
        <g opacity="0.5">
            <path d="M736.981,500.899C736.68,502.584 731.87,503.6 730.37,504C729.828,504.145 729.381,504.592 729.235,505.135C728.91,506.355 727.442,511.645 726.566,511.645C725.701,511.645 724.208,506.299 723.897,505.135C723.752,504.592 723.305,504.145 722.762,504C721.543,503.674 716.252,502.207 716.252,501.331C716.252,500.466 721.598,498.973 722.762,498.662C723.305,498.517 723.752,498.07 723.897,497.527C724.223,496.307 725.69,491.017 726.566,491.017C727.432,491.017 728.925,496.363 729.235,497.527C729.381,498.07 729.828,498.517 730.37,498.662C731.87,499.062 736.68,500.078 736.981,501.763C737.35,503.818 740.482,502.947 740.115,500.899C739.518,497.563 733.971,496.259 731.234,495.528C731.613,495.906 731.991,496.285 732.369,496.663C731.661,494.01 730.165,487.707 726.566,487.724C722.959,487.742 721.479,493.983 720.764,496.663C721.142,496.285 721.52,495.906 721.898,495.528C719.245,496.237 712.942,497.732 712.96,501.331C712.978,504.938 719.219,506.418 721.898,507.134C721.52,506.756 721.142,506.377 720.764,505.999C721.472,508.652 722.968,514.955 726.566,514.937C730.174,514.92 731.653,508.679 732.369,505.999C731.991,506.377 731.613,506.756 731.234,507.134C733.964,506.405 739.518,505.101 740.115,501.763C740.481,499.718 737.35,498.84 736.981,500.899Z" style="fill:rgb(16,20,22);fill-rule:nonzero;"/>
            <path d="M645.701,493.735C641.227,499.995 642.547,510.505 643.129,517.649C643.625,523.724 644.409,529.812 645.537,535.805C646.203,535.138 646.869,534.472 647.536,533.806C640.839,532.464 633.953,535.074 630.539,541.191C627.459,546.708 628.143,553.742 632.223,558.563C636.478,563.592 643.662,565.311 649.743,562.785C656.766,559.867 659.869,552.653 659.407,545.366C659.04,539.564 657.305,533.836 656.681,528.033C656.051,522.172 655.554,516.183 655.908,510.286C656.013,508.544 656.035,506.387 657.066,504.9C658.418,502.951 661.25,501.636 663.316,500.629C668.715,497.998 675.343,495.913 681.414,496.302C684.167,496.478 686.042,497.198 686.709,500.001C687.346,502.679 687.153,505.607 686.943,508.327C686.607,512.668 685.894,517.018 684.907,521.26C685.573,520.881 686.239,520.503 686.906,520.125C680.48,518.837 673.94,521.136 670.344,526.786C667.038,531.977 667.232,538.894 670.82,543.891C674.393,548.864 680.804,551.334 686.784,549.876C692.81,548.408 696.625,543.108 698.479,537.488C701.2,529.237 701.624,519.874 702.47,511.273C703.197,503.866 704.634,495.867 702.937,488.494C701.749,483.338 698.595,478.752 693.425,477.114C688.789,475.645 683.612,476.165 678.912,477.014C672.321,478.203 665.888,480.491 659.877,483.422C654.852,485.874 649.479,488.946 645.955,493.406C644.672,495.03 646.957,497.345 648.253,495.704C653.387,489.206 662.317,485.373 669.93,482.76C676.838,480.388 687.649,477.032 694.556,481.112C699.447,484.002 700.413,490.546 700.422,495.711C700.433,501.933 699.547,508.22 698.904,514.397C698.156,521.595 697.639,529.272 695.473,536.211C693.765,541.685 689.9,546.791 683.727,547.032C676.806,547.301 670.964,541.459 671.224,534.541C671.513,526.871 678.716,521.791 686.042,523.259C686.876,523.426 687.831,523.028 688.041,522.124C689.708,514.954 691.789,505.876 689.718,498.64C686.903,488.806 671.187,493.872 664.836,496.429C661.14,497.918 655.938,500.065 653.917,503.793C651.978,507.373 652.497,512.669 652.611,516.564C652.775,522.125 653.288,527.69 654.071,533.197C655.053,540.094 658.102,547.607 654.59,554.246C650.014,562.897 637.098,562.656 632.955,553.759C628.674,544.566 637.104,535.023 646.672,536.94C647.94,537.194 648.907,536.197 648.671,534.941C647.641,529.465 646.919,523.914 646.439,518.365C646.071,514.1 645.847,509.799 646.052,505.519C646.214,502.142 646.474,498.22 648.507,495.375C649.726,493.671 646.908,492.046 645.701,493.735Z" style="fill:rgb(16,20,22);fill-rule:nonzero;"/>
            <path d="M715.395,566.129C715.914,561.331 715.035,557.152 713.558,552.615C712.812,550.323 711.887,547.458 713.072,545.16C714.251,542.874 716.834,542 719.172,541.507C722.413,540.825 725.611,540.818 727.745,537.938C729.421,535.676 730.107,532.349 728.818,529.75C726.097,524.261 718.348,526.351 714.057,528.327C708.613,530.833 703.166,534.909 702.557,541.21C702.038,546.573 702.853,552.212 703.84,557.488C704.506,556.822 705.173,556.156 705.839,555.489C701.032,554.623 696.249,556.319 693.748,560.702C691.229,565.116 692.283,570.69 696.064,574.046C702.822,580.043 713.883,574.98 715.337,566.561C715.69,564.516 712.559,563.637 712.203,565.697C711.286,571.003 705.229,575.222 699.969,572.766C691.709,568.909 696.455,557.088 704.975,558.623C706.243,558.852 707.212,557.899 706.974,556.624C706.059,551.732 705.318,546.5 705.776,541.524C706.395,534.81 716.207,529.119 722.554,529.497C727.334,529.781 727.225,535.879 723.204,537.447C719.525,538.881 715.579,538.23 712.358,541.003C709.281,543.651 708.856,547.421 709.752,551.188C710.99,556.401 712.742,560.61 712.145,566.129C711.92,568.206 715.172,568.19 715.395,566.129Z" style="fill:rgb(16,20,22);fill-rule:nonzero;"/>
        </g>
    </g>
</svg>
