<?xml version="1.0" encoding="UTF-8" standalone="no"?>
<!DOCTYPE svg PUBLIC "-//W3C//DTD SVG 1.1//EN" "http://www.w3.org/Graphics/SVG/1.1/DTD/svg11.dtd">
<svg width="100%" height="100%" viewBox="0 0 3000 3000" version="1.1" xmlns="http://www.w3.org/2000/svg" xmlns:xlink="http://www.w3.org/1999/xlink" xml:space="preserve" xmlns:serif="http://www.serif.com/" style="fill-rule:evenodd;clip-rule:evenodd;stroke-linejoin:round;stroke-miterlimit:2;">
    <g transform="matrix(29.3019,0,0,29.3019,-14640.7,-1126.05)">
        <g opacity="0.5">
            <path d="M550.894,59.245C552.648,59.439 554.029,64.854 554.428,66.109C554.952,67.76 555.412,69.437 555.781,71.13C555.919,71.766 556.675,72.39 557.348,72.323C558.967,72.161 560.601,72.081 562.227,72.061C563.543,72.044 569.461,71.644 570.126,73.208C571.115,75.532 562.33,80.512 560.517,81.571C559.696,82.051 559.58,82.989 559.934,83.795C560.653,85.434 561.27,87.13 561.813,88.834C562.193,90.02 564.113,95.093 562.816,96.023C561.546,96.935 557.233,93.492 556.244,92.78C554.788,91.733 553.382,90.606 552.043,89.413C551.358,88.804 550.433,88.8 549.744,89.413C548.405,90.607 546.998,91.732 545.543,92.78C544.553,93.493 540.243,96.936 538.971,96.023C537.677,95.095 539.597,90.015 539.974,88.834C540.518,87.13 541.134,85.434 541.854,83.795C542.206,82.991 542.099,82.055 541.271,81.571C539.55,80.567 530.582,75.386 531.66,73.208C532.423,71.67 537.905,72.049 539.246,72.058C540.978,72.07 542.716,72.15 544.439,72.323C545.108,72.39 545.866,71.773 546.006,71.13C546.375,69.437 546.835,67.759 547.359,66.109C547.78,64.784 549.115,59.441 550.894,59.245C552.949,59.018 552.973,55.765 550.894,55.995C545.504,56.591 543.797,66.019 542.872,70.266C543.395,69.868 543.917,69.47 544.439,69.073C540.541,68.683 530.318,67.316 528.521,72.169C526.656,77.208 536.258,82.408 539.63,84.378C539.436,83.637 539.241,82.895 539.047,82.154C537.447,85.797 532.731,95.433 537,98.624C541.287,101.829 549.09,94.343 552.043,91.711L549.744,91.711C552.695,94.341 560.501,101.828 564.787,98.624C569.057,95.433 564.341,85.8 562.74,82.154C562.546,82.895 562.352,83.637 562.157,84.378C565.526,82.41 575.13,77.207 573.266,72.169C571.469,67.316 561.248,68.682 557.348,69.073C557.87,69.47 558.393,69.868 558.915,70.266C557.991,66.023 556.283,56.591 550.894,55.995C548.817,55.765 548.834,59.017 550.894,59.245Z" style="fill:rgb(16,20,22);fill-rule:nonzero;"/>
            <path d="M587.591,77.07C586.24,59.534 572.463,47.846 555.475,46.036C539.814,44.367 522.541,51.439 516.432,66.773C509.725,83.61 518.312,103.675 528.124,117.52C532.329,123.453 537.6,129.504 544.525,132.248C551.257,134.914 557.977,132.88 563.51,128.577C570.396,123.223 575.514,115.561 579.512,107.898C584.459,98.415 588.084,87.888 587.591,77.07C587.496,74.987 584.245,74.976 584.341,77.07C585.035,92.307 577.462,108.42 567.75,119.908C563.586,124.834 557.794,130.328 550.894,130.29C544.123,130.252 538.489,125.09 534.339,120.259C524.761,109.112 516.931,93.082 517.396,78.171C517.924,61.261 532.043,50.162 548.147,49.128C565.723,48.001 582.903,58.409 584.341,77.07C584.5,79.142 587.752,79.159 587.591,77.07Z" style="fill:rgb(16,20,22);fill-rule:nonzero;"/>
        </g>
    </g>
</svg>
