<?xml version="1.0" encoding="UTF-8" standalone="no"?>
<!DOCTYPE svg PUBLIC "-//W3C//DTD SVG 1.1//EN" "http://www.w3.org/Graphics/SVG/1.1/DTD/svg11.dtd">
<svg width="100%" height="100%" viewBox="0 0 3000 3000" version="1.1" xmlns="http://www.w3.org/2000/svg" xmlns:xlink="http://www.w3.org/1999/xlink" xml:space="preserve" xmlns:serif="http://www.serif.com/" style="fill-rule:evenodd;clip-rule:evenodd;stroke-linejoin:round;stroke-miterlimit:2;">
    <g transform="matrix(-20.5335,-20.5335,20.5335,-20.5335,-7266.6,38138.3)">
        <g opacity="0.5">
            <path d="M688.898,1128.04C680.495,1129.17 671.942,1129.42 663.472,1129.38C655.611,1129.35 647.544,1129.2 639.793,1127.76C637.65,1127.36 635.42,1127.1 634.009,1125.29C632.486,1123.33 631.795,1120.7 631.269,1118.33C629.898,1112.15 629.858,1105.45 630.817,1099.2C631.47,1094.95 632.505,1088.57 637.209,1087.05C643.946,1084.88 651.612,1084.9 658.614,1084.73C667.214,1084.52 675.833,1084.7 684.42,1085.22C687.975,1085.43 690.955,1085.77 694.139,1087.49C697.461,1089.28 700.469,1091.65 703.229,1094.21C706.126,1096.9 708.939,1099.88 710.98,1103.29C712.771,1106.28 712.646,1108.44 710.957,1111.52C706.628,1119.42 697.888,1126.58 688.898,1128.04C686.839,1128.37 687.713,1131.5 689.763,1131.17C698.6,1129.74 706.607,1123.3 711.778,1116.23C713.63,1113.7 715.646,1110.5 715.697,1107.24C715.743,1104.42 713.973,1101.74 712.376,1099.54C707.668,1093.08 701.014,1086.84 693.608,1083.63C690.268,1082.18 686.825,1082.1 683.234,1081.9C678.262,1081.62 673.28,1081.46 668.3,1081.41C659.192,1081.32 649.894,1081.37 640.889,1082.89C638.292,1083.33 635.2,1083.79 633.104,1085.53C631.146,1087.15 630.023,1089.62 629.202,1091.97C626.919,1098.5 626.597,1105.98 627.193,1112.82C627.646,1118.01 628.513,1125.33 632.949,1128.82C635.384,1130.73 639.112,1130.99 642.065,1131.39C647.013,1132.06 652.011,1132.36 657,1132.52C667.907,1132.86 678.937,1132.63 689.763,1131.17C691.825,1130.89 690.947,1127.76 688.898,1128.04Z" style="fill:rgb(16,20,22);fill-rule:nonzero;"/>
            <path d="M697.991,1102.62C700.426,1105.26 700.606,1109.32 697.991,1111.94C695.451,1114.47 691.216,1114.47 688.678,1111.94C686.154,1109.41 686.118,1105.15 688.678,1102.62C691.316,1100.02 695.332,1100.17 697.991,1102.62C699.526,1104.04 701.83,1101.75 700.289,1100.33C696.349,1096.69 690.289,1096.45 686.38,1100.33C682.597,1104.08 682.597,1110.48 686.38,1114.23C690.175,1118 696.498,1118.02 700.289,1114.23C704.186,1110.34 703.913,1104.25 700.289,1100.33C698.868,1098.78 696.574,1101.09 697.991,1102.62Z" style="fill:rgb(16,20,22);fill-rule:nonzero;"/>
            <path d="M726.098,1105.85C715.534,1105.72 704.972,1105.59 694.409,1105.46C692.317,1105.44 692.316,1108.69 694.409,1108.71C704.972,1108.84 715.534,1108.97 726.098,1109.1C728.189,1109.12 728.19,1105.87 726.098,1105.85Z" style="fill:rgb(16,20,22);fill-rule:nonzero;"/>
        </g>
    </g>
</svg>
