<?xml version="1.0" encoding="UTF-8" standalone="no"?>
<!DOCTYPE svg PUBLIC "-//W3C//DTD SVG 1.1//EN" "http://www.w3.org/Graphics/SVG/1.1/DTD/svg11.dtd">
<svg width="100%" height="100%" viewBox="0 0 3000 3000" version="1.1" xmlns="http://www.w3.org/2000/svg" xmlns:xlink="http://www.w3.org/1999/xlink" xml:space="preserve" xmlns:serif="http://www.serif.com/" style="fill-rule:evenodd;clip-rule:evenodd;stroke-linejoin:round;stroke-miterlimit:2;">
    <g transform="matrix(22.8144,22.8144,-22.8144,22.8144,14275.3,-36327.6)">
        <g opacity="0.5">
            <path d="M589.238,1094.64C585.142,1092.86 580.768,1092.04 576.371,1091.37C576.769,1091.89 577.167,1092.41 577.564,1092.93C577.546,1085.78 576.188,1076.71 569.067,1073.22C563.039,1070.26 555.644,1069.74 549.039,1069.74C542.498,1069.74 535.267,1070.27 529.264,1073.1C521.952,1076.55 520.533,1085.64 520.515,1092.93C520.912,1092.41 521.31,1091.89 521.706,1091.37C512.154,1092.82 500.591,1095.98 498.852,1107.17C498.243,1111.08 499.31,1115.04 501.845,1118.09C505.428,1122.39 510.928,1123.85 516.198,1124.91C517.146,1125.1 517.839,1124.64 518.198,1123.77C521.581,1115.66 533.393,1117.49 534.797,1125.9C534.917,1126.62 535.702,1127.06 536.364,1127.09C544.812,1127.49 553.268,1127.49 561.714,1127.09C562.368,1127.06 563.162,1126.61 563.281,1125.9C564.684,1117.5 576.493,1115.65 579.88,1123.77C580.237,1124.63 580.923,1125.1 581.879,1124.91C589.513,1123.38 597.886,1120.19 599.237,1111.48C600.371,1104.17 595.577,1097.72 589.238,1094.64C587.364,1093.73 585.715,1096.53 587.598,1097.45C592.733,1099.94 597.026,1104.99 596.028,1111.04C594.823,1118.35 587.269,1120.52 581.015,1121.78C581.682,1122.15 582.348,1122.53 583.014,1122.91C578.553,1112.21 562.149,1113.04 560.147,1125.03C560.67,1124.64 561.192,1124.24 561.714,1123.84C553.268,1124.24 544.812,1124.24 536.364,1123.84C536.887,1124.24 537.409,1124.64 537.932,1125.03C535.928,1113.04 519.526,1112.21 515.064,1122.91C515.729,1122.53 516.396,1122.15 517.063,1121.78C509.487,1120.26 500.008,1116.42 502.211,1106.85C504.327,1097.66 514.671,1095.7 522.57,1094.5C523.266,1094.39 523.763,1093.58 523.765,1092.93C523.781,1086.26 524.9,1078.23 531.84,1075.52C537.213,1073.41 543.326,1072.98 549.039,1072.99C554.678,1072.99 560.628,1073.42 565.955,1075.41C573.106,1078.08 574.296,1086.07 574.314,1092.93C574.315,1093.58 574.813,1094.39 575.507,1094.5C579.575,1095.12 583.797,1095.8 587.598,1097.45C589.497,1098.27 591.153,1095.47 589.238,1094.64Z" style="fill:rgb(16,20,22);fill-rule:nonzero;"/>
            <path d="M520.184,1132.29C517.036,1129.03 516.794,1124.05 520.184,1120.82C523.487,1117.68 528.997,1117.68 532.3,1120.82C535.584,1123.95 535.589,1129.16 532.3,1132.29C528.9,1135.52 523.612,1135.31 520.184,1132.29C518.619,1130.91 516.313,1133.2 517.886,1134.59C522.646,1138.78 529.874,1139.09 534.599,1134.59C539.129,1130.26 539.129,1122.85 534.599,1118.53C530.014,1114.15 522.469,1114.15 517.886,1118.53C513.216,1122.99 513.537,1130.08 517.886,1134.59C519.341,1136.09 521.638,1133.79 520.184,1132.29Z" style="fill:rgb(16,20,22);fill-rule:nonzero;"/>
            <path d="M565.778,1132.29C562.631,1129.03 562.389,1124.05 565.778,1120.82C569.082,1117.68 574.592,1117.68 577.895,1120.82C581.179,1123.95 581.184,1129.16 577.895,1132.29C574.495,1135.52 569.207,1135.31 565.778,1132.29C564.214,1130.91 561.906,1133.2 563.48,1134.59C568.242,1138.78 575.468,1139.09 580.193,1134.59C584.724,1130.26 584.724,1122.85 580.193,1118.53C575.608,1114.15 568.064,1114.15 563.48,1118.53C558.812,1122.99 559.131,1130.08 563.48,1134.59C564.937,1136.09 567.232,1133.79 565.778,1132.29Z" style="fill:rgb(16,20,22);fill-rule:nonzero;"/>
            <path d="M522.14,1094.56L575.939,1094.56C578.03,1094.56 578.034,1091.31 575.939,1091.31L522.14,1091.31C520.047,1091.31 520.044,1094.56 522.14,1094.56Z" style="fill:rgb(16,20,22);fill-rule:nonzero;"/>
            <path d="M547.414,1071.36L547.414,1092.93C547.414,1095.02 550.664,1095.03 550.664,1092.93L550.664,1071.36C550.664,1069.27 547.414,1069.26 547.414,1071.36Z" style="fill:rgb(16,20,22);fill-rule:nonzero;"/>
        </g>
    </g>
</svg>
