<?xml version="1.0" encoding="UTF-8" standalone="no"?>
<!DOCTYPE svg PUBLIC "-//W3C//DTD SVG 1.1//EN" "http://www.w3.org/Graphics/SVG/1.1/DTD/svg11.dtd">
<svg width="100%" height="100%" viewBox="0 0 3000 3000" version="1.1" xmlns="http://www.w3.org/2000/svg" xmlns:xlink="http://www.w3.org/1999/xlink" xml:space="preserve" xmlns:serif="http://www.serif.com/" style="fill-rule:evenodd;clip-rule:evenodd;stroke-linejoin:round;stroke-miterlimit:2;">
    <g transform="matrix(34.1933,0,0,34.1933,-21662.1,-26369.3)">
        <g opacity="0.5">
            <path d="M670.593,829.881C669.909,828.27 668.468,828.297 666.946,827.674C664.855,826.818 662.887,825.663 661.034,824.373C656.896,821.494 653.315,817.898 650.055,814.074C649.669,813.621 649.017,813.546 648.474,813.656C643.468,814.672 639.854,818.463 639.279,823.569C638.593,829.665 642.308,835.054 646.883,838.699C651.682,842.522 658.747,845.291 664.853,843.15C670.276,841.25 672.422,835.52 670.756,830.269C670.126,828.283 666.987,829.132 667.622,831.133C669.134,835.897 666.48,840.193 661.382,840.555C656.31,840.914 651.297,838.49 647.66,835.094C644.716,832.343 642.303,828.836 642.452,824.649C642.602,820.486 645.324,817.604 649.338,816.79C648.811,816.65 648.284,816.511 647.757,816.372C650.745,819.876 653.997,823.137 657.672,825.924C659.326,827.179 661.049,828.348 662.88,829.331C663.498,829.663 667.566,831.004 667.786,831.521C668.601,833.44 671.401,831.786 670.593,829.881Z" style="fill:rgb(16,20,22);fill-rule:nonzero;"/>
            <path d="M655.46,805.977C651.394,801.601 651.116,794.831 655.46,790.487C659.686,786.262 666.725,786.262 670.95,790.487C675.176,794.713 675.176,801.751 670.95,805.977C666.606,810.321 659.837,810.044 655.46,805.977C653.93,804.555 651.626,806.848 653.162,808.275C658.82,813.533 667.635,813.889 673.248,808.275C678.712,802.811 678.712,793.653 673.248,788.189C667.799,782.739 658.606,782.706 653.162,788.189C647.568,793.822 647.89,802.601 653.162,808.275C654.589,809.81 656.883,807.509 655.46,805.977Z" style="fill:rgb(16,20,22);fill-rule:nonzero;"/>
            <path d="M697.925,776.629C690.678,772.115 680.494,774.31 678.637,783.462C678.526,784.007 678.603,784.655 679.055,785.043C684.604,789.811 690.145,795.596 692.738,802.579C693.729,805.246 694.716,806.007 697.704,806.338C700.009,806.594 702.337,806.12 704.291,804.84C708.716,801.942 709.368,796.365 708.38,791.563C707.109,785.392 703.011,780.174 697.925,776.629C696.205,775.43 694.579,778.246 696.285,779.435C700.546,782.405 703.974,786.814 705.146,791.943C706.233,796.699 704.979,803.091 698.979,803.181C696.036,803.226 696.047,801.893 694.989,799.588C694.004,797.439 692.772,795.411 691.393,793.494C688.512,789.491 685.088,785.954 681.353,782.745C681.492,783.272 681.631,783.8 681.771,784.326C683.216,777.207 690.753,775.99 696.285,779.435C698.065,780.544 699.698,777.733 697.925,776.629Z" style="fill:rgb(16,20,22);fill-rule:nonzero;"/>
            <path d="M719.358,828.753C714.691,819.152 705.481,811.308 694.518,810.749C693.999,810.723 693.335,811.066 693.114,811.554C690.017,818.393 683.96,824.433 677.311,827.853C676.824,828.103 676.484,828.714 676.506,829.256C676.795,836.772 681.163,844.172 686.169,849.56C690.618,854.35 697.723,859.699 704.668,858.825C707.659,858.448 710.536,856.9 711.974,854.16C713.812,850.656 712.687,846.671 711.71,843.107C711.412,842.018 710.76,840.274 710.847,839.182C710.977,837.563 711.418,837.516 712.967,837.266C714.376,837.039 715.611,837.185 716.959,836.538C719.906,835.123 720.608,832.052 719.521,829.141C718.797,827.199 715.654,828.039 716.388,830.005C718.296,835.116 712.727,833.387 710.169,834.271C708.391,834.886 707.644,836.273 707.556,838.071C707.401,841.214 708.852,844.204 709.436,847.227C710.286,851.622 708.362,855.471 703.588,855.674C697.742,855.923 691.804,850.952 688.135,846.894C683.903,842.215 680.004,835.712 679.756,829.256C679.487,829.724 679.219,830.191 678.951,830.659C686.046,827.01 692.614,820.493 695.921,813.193C695.453,813.462 694.985,813.73 694.518,813.999C704.357,814.5 712.406,821.865 716.552,830.393C717.466,832.273 720.27,830.628 719.358,828.753Z" style="fill:rgb(16,20,22);fill-rule:nonzero;"/>
            <path d="M698.786,816.491C697.357,815.185 695.886,814.172 694.092,813.414C693.271,813.067 692.373,813.168 691.868,813.997C688.88,818.91 684.75,823.123 679.98,826.326C679.441,826.688 678.952,827.481 679.233,828.162C681.004,832.439 684.654,837.997 689.667,838.816C691.688,839.146 693.266,838.087 694.118,836.304C694.668,835.156 694.809,833.895 695.117,832.677C695.597,830.787 695.582,830.45 697.254,831.125C700.244,832.331 704.34,833.805 704.915,829.168C705.491,824.523 701.82,819.622 698.786,816.491C697.328,814.986 695.031,817.286 696.488,818.789C698.499,820.863 701.391,824.28 701.609,827.325C701.817,830.235 699.964,828.837 698.303,828.012C697.4,827.562 696.519,827.015 695.482,827.032C692.571,827.083 692.187,831.032 691.683,833.182C690.939,836.357 687.824,834.628 686.217,833.085C684.53,831.467 683.258,829.449 682.367,827.298C682.119,827.909 681.87,828.521 681.621,829.133C686.86,825.613 691.39,821.038 694.675,815.638C693.934,815.831 693.192,816.025 692.451,816.22C694.008,816.878 695.23,817.64 696.488,818.789C698.03,820.197 700.335,817.905 698.786,816.491Z" style="fill:rgb(16,20,22);fill-rule:nonzero;"/>
            <path d="M664.999,776.488C670.917,778.594 676.261,782.441 680.873,786.637C685.678,791.008 690.344,796.27 692.689,802.422C694.735,807.786 693.543,811.899 690.278,816.438C686.974,821.031 682.41,825.426 677.262,827.879C672.019,830.376 666.588,828.011 662.034,825.053C656.438,821.417 651.629,816.396 647.671,811.056C641.188,802.309 638.041,792.097 638.257,781.165C638.298,779.128 638.261,776.674 640.224,775.584C642.442,774.352 645.646,774.462 648.093,774.435C653.65,774.372 659.675,774.768 664.999,776.488C666.993,777.133 667.848,773.996 665.862,773.354C660.408,771.592 654.167,771.159 648.475,771.184C644.34,771.201 637.779,771.172 635.866,775.708C633.689,780.868 635.269,788.042 636.249,793.313C637.324,799.104 639.223,804.168 642.415,809.149C646.479,815.488 651.61,821.301 657.602,825.876C662.255,829.429 668.659,833.207 674.786,832.121C680.747,831.064 686.201,826.142 690.095,821.799C693.808,817.659 697.653,812.38 697.032,806.531C696.227,798.94 690.975,792.145 685.805,786.874C680.216,781.175 673.439,776.051 665.862,773.354C663.889,772.652 663.039,775.791 664.999,776.488Z" style="fill:rgb(16,20,22);fill-rule:nonzero;"/>
        </g>
    </g>
</svg>
