<?xml version="1.0" encoding="UTF-8" standalone="no"?>
<!DOCTYPE svg PUBLIC "-//W3C//DTD SVG 1.1//EN" "http://www.w3.org/Graphics/SVG/1.1/DTD/svg11.dtd">
<svg width="100%" height="100%" viewBox="0 0 3000 3000" version="1.1" xmlns="http://www.w3.org/2000/svg" xmlns:xlink="http://www.w3.org/1999/xlink" xml:space="preserve" xmlns:serif="http://www.serif.com/" style="fill-rule:evenodd;clip-rule:evenodd;stroke-linejoin:round;stroke-miterlimit:2;">
    <g transform="matrix(21.6637,-21.6637,26.9209,26.9209,-22719.4,-17770.6)">
        <g opacity="0.5">
            <path d="M79.062,796.516C102.397,796.515 125.731,796.463 149.066,796.419C150.27,796.417 151.128,795.03 150.469,793.974C147.055,788.499 142.849,783.002 138.232,778.489C134.688,775.023 129.345,774.982 124.639,774.662C117.774,774.194 110.844,774.243 103.977,774.655C98.893,774.96 94.232,775.042 90.261,778.585C87.272,781.251 84.769,784.539 82.328,787.695C80.823,789.64 78.669,791.801 77.659,794.07C76.816,795.965 79.616,797.62 80.465,795.711C81.113,794.254 82.458,792.871 83.404,791.607C85.498,788.81 87.668,786.05 90.022,783.465C91.809,781.503 93.774,779.376 96.327,778.723C98.272,778.225 100.389,778.155 102.382,778.01C108.569,777.56 114.804,777.482 121.002,777.722C125.061,777.878 131.55,777.431 135.007,779.921C137.504,781.72 139.538,784.714 141.443,787.085C143.642,789.822 145.803,792.632 147.663,795.614C148.13,794.799 148.598,793.984 149.066,793.169C125.731,793.213 102.397,793.265 79.062,793.266C76.971,793.266 76.967,796.516 79.062,796.516Z" style="fill:rgb(16,20,22);fill-rule:nonzero;"/>
            <path d="M77.659,795.711C84.237,808.582 90.941,821.396 98.414,833.776C102.344,840.289 106.477,846.679 110.82,852.923C112.09,854.75 113.147,856.37 115.45,855.096C117.076,854.195 118.304,852.281 119.366,850.831C121.338,848.14 123.09,845.284 124.807,842.427C129.384,834.807 133.616,826.978 137.822,819.15C142.036,811.306 146.12,803.385 150.469,795.614C151.067,794.546 150.315,793.167 149.066,793.169C128.675,793.197 108.287,793.226 87.897,793.253C84.952,793.257 82.007,793.262 79.062,793.266C76.971,793.268 76.967,796.518 79.062,796.516C99.452,796.487 119.842,796.459 140.231,796.431C143.176,796.427 146.121,796.423 149.066,796.419C148.598,795.603 148.13,794.789 147.663,793.974C140.186,807.332 133.338,821.033 125.761,834.338C122.66,839.784 119.604,845.563 115.611,850.428C115.194,850.935 114.25,851.589 113.985,852.161C113.963,852.209 113.626,852.556 113.755,852.35C113.606,852.587 113.874,852.263 114.13,852.392C115.208,852.935 113.419,850.986 113.258,850.754C109.284,844.998 105.473,839.134 101.838,833.156C94.118,820.461 87.224,807.295 80.465,794.07C79.513,792.207 76.708,793.85 77.659,795.711Z" style="fill:rgb(16,20,22);fill-rule:nonzero;"/>
            <path d="M102.661,795.479C105.848,814.881 108.533,834.575 112.808,853.769C113.263,855.81 116.397,854.946 115.942,852.905C111.667,833.711 108.982,814.017 105.795,794.616C105.457,792.557 102.324,793.431 102.661,795.479Z" style="fill:rgb(16,20,22);fill-rule:nonzero;"/>
            <path d="M124.583,795.079C122.406,805.615 120.361,816.179 118.465,826.769C117.518,832.065 116.605,837.367 115.729,842.675C115.212,845.81 115.022,849.318 113.987,852.34C113.308,854.322 116.446,855.174 117.122,853.203C118.159,850.175 118.344,846.685 118.863,843.539C119.739,838.23 120.651,832.929 121.6,827.634C123.496,817.043 125.541,806.479 127.717,795.942C128.139,793.901 125.006,793.028 124.583,795.079Z" style="fill:rgb(16,20,22);fill-rule:nonzero;"/>
            <path d="M93.3,779.763C96.082,785.485 99.895,790.678 102.894,796.287C103.88,798.133 106.687,796.493 105.7,794.647C102.702,789.037 98.889,783.845 96.107,778.122C95.192,776.242 92.389,777.888 93.3,779.763Z" style="fill:rgb(16,20,22);fill-rule:nonzero;"/>
            <path d="M106.346,795.522C109.833,789.216 113.43,782.968 117.201,776.826C118.298,775.039 115.488,773.405 114.395,775.186C110.624,781.328 107.027,787.576 103.54,793.882C102.526,795.714 105.332,797.354 106.346,795.522Z" style="fill:rgb(16,20,22);fill-rule:nonzero;"/>
            <path d="M115.039,777.448C118.462,783.393 122.073,789.281 124.747,795.614C125.558,797.534 128.358,795.88 127.553,793.974C124.879,787.641 121.269,781.752 117.845,775.809C116.801,773.996 113.992,775.631 115.039,777.448Z" style="fill:rgb(16,20,22);fill-rule:nonzero;"/>
            <path d="M127.553,795.614C130.389,790.158 133.67,784.934 136.317,779.379C137.212,777.501 134.411,775.85 133.511,777.739C130.864,783.293 127.583,788.518 124.747,793.974C123.783,795.827 126.587,797.473 127.553,795.614Z" style="fill:rgb(16,20,22);fill-rule:nonzero;"/>
        </g>
    </g>
</svg>
