<?xml version="1.0" encoding="UTF-8" standalone="no"?>
<!DOCTYPE svg PUBLIC "-//W3C//DTD SVG 1.1//EN" "http://www.w3.org/Graphics/SVG/1.1/DTD/svg11.dtd">
<svg width="100%" height="100%" viewBox="0 0 3000 3000" version="1.1" xmlns="http://www.w3.org/2000/svg" xmlns:xlink="http://www.w3.org/1999/xlink" xml:space="preserve" xmlns:serif="http://www.serif.com/" style="fill-rule:evenodd;clip-rule:evenodd;stroke-linejoin:round;stroke-miterlimit:2;">
    <g transform="matrix(33.4825,0,0,33.4825,-16883.9,-30655.8)">
        <g opacity="0.5">
            <path d="M588.065,954.457C582.215,948.977 573.925,945.441 566.826,941.965C555.692,936.511 544.218,931.604 532.45,927.687C527.326,925.981 522.115,924.445 516.804,923.442C514.4,922.988 511.527,922.4 509.609,924.38C507.804,926.243 508.104,929.072 508.472,931.405C511.076,947.959 515.304,964.89 521.517,980.465C522.645,983.291 524.007,986.273 526.535,988.122C529.693,990.432 533.542,989.831 537.142,989.068C545.553,987.286 553.746,983.749 561.558,980.218C562.568,979.761 562.516,978.369 561.886,977.665C545.802,959.685 529.377,941.999 512.768,924.501C512.112,925.352 511.456,926.202 510.8,927.053C522.086,932.844 532.012,940.703 541.556,948.986C551.251,957.401 560.811,965.977 570.428,974.481C570.288,973.955 570.148,973.428 570.01,972.9C570.004,972.938 569.999,972.977 569.994,973.014C569.806,974.371 571.032,975.592 572.381,974.849C577.636,971.957 595.711,962.726 588.065,954.457C586.643,952.918 584.349,955.221 585.768,956.755C590.492,961.865 573.837,970.339 570.74,972.043C571.536,972.654 572.332,973.267 573.128,973.878C573.43,971.7 570.396,970.124 569,968.89C566.449,966.634 563.899,964.379 561.349,962.123C555.959,957.357 550.588,952.569 545.17,947.836C535.018,938.966 524.487,930.429 512.44,924.247C510.816,923.413 509.168,925.427 510.471,926.799C527.078,944.297 543.504,961.982 559.588,979.964C559.697,979.113 559.808,978.262 559.917,977.411C553.966,980.102 547.902,982.532 541.666,984.485C538.219,985.564 532.955,987.604 529.465,986.06C526.292,984.657 525.015,980.615 523.899,977.621C518.789,963.902 515.292,949.679 512.51,935.324C512.013,932.759 509.608,926.403 513.88,926.273C516.103,926.207 518.695,927.125 520.836,927.656C525.706,928.866 530.494,930.397 535.223,932.071C545.323,935.647 555.196,939.894 564.824,944.594C571.756,947.977 580.057,951.406 585.768,956.755C587.293,958.185 589.596,955.891 588.065,954.457Z" style="fill:rgb(16,20,22);fill-rule:nonzero;"/>
            <path d="M567.808,994.68C561.974,990.835 556.113,986.892 550.858,982.266C549.294,980.889 546.987,983.179 548.561,984.564C554.021,989.372 560.104,993.49 566.168,997.485C567.919,998.64 569.549,995.826 567.808,994.68Z" style="fill:rgb(16,20,22);fill-rule:nonzero;"/>
            <path d="M510.8,927.053C522.086,932.844 532.012,940.703 541.556,948.986C551.251,957.401 560.811,965.977 570.428,974.481C570.288,973.955 570.149,973.428 570.01,972.9C568.962,980.576 566.907,988.057 565.421,995.65L568.555,995.65C566.726,991.073 565.017,986.44 563.625,981.71C562.855,979.092 562.313,978.138 560.36,975.961C553.207,967.984 545.972,960.082 538.698,952.215C530.11,942.927 521.478,933.677 512.768,924.501C511.326,922.98 509.03,925.281 510.471,926.799C518.827,935.603 527.112,944.477 535.357,953.386C542.5,961.103 549.606,968.854 556.639,976.674C557.59,977.731 559.188,979.006 559.817,980.15C560.268,980.969 560.385,982.225 560.653,983.118C562.019,987.66 563.662,992.112 565.421,996.515C565.951,997.842 568.213,998.262 568.555,996.515C569.361,992.392 570.314,988.304 571.225,984.203C571.619,982.424 572.001,980.641 572.334,978.849C572.621,977.305 573.447,974.9 573.201,973.333C572.952,971.741 571.034,970.687 569.921,969.703C568.255,968.23 566.589,966.757 564.923,965.284C561.486,962.245 558.049,959.205 554.612,956.166C541.399,944.482 528.254,932.361 512.44,924.247C510.583,923.294 508.937,926.097 510.8,927.053Z" style="fill:rgb(16,20,22);fill-rule:nonzero;"/>
        </g>
    </g>
</svg>
