<?xml version="1.0" encoding="UTF-8" standalone="no"?>
<!DOCTYPE svg PUBLIC "-//W3C//DTD SVG 1.1//EN" "http://www.w3.org/Graphics/SVG/1.1/DTD/svg11.dtd">
<svg width="100%" height="100%" viewBox="0 0 3000 3000" version="1.1" xmlns="http://www.w3.org/2000/svg" xmlns:xlink="http://www.w3.org/1999/xlink" xml:space="preserve" xmlns:serif="http://www.serif.com/" style="fill-rule:evenodd;clip-rule:evenodd;stroke-linejoin:round;stroke-miterlimit:2;">
    <g transform="matrix(25.4843,0,0,25.4843,-9093.6,-8016.76)">
        <g opacity="0.5">
            <path d="M456.934,350.615C458.541,349.008 460.148,347.401 461.755,345.793C463.236,344.312 460.938,342.014 459.457,343.495C457.85,345.103 456.243,346.71 454.636,348.317C453.154,349.798 455.452,352.097 456.934,350.615Z" style="fill:rgb(16,20,22);fill-rule:nonzero;"/>
            <path d="M399.707,345.793C401.314,347.401 402.921,349.008 404.528,350.615C406.01,352.096 408.308,349.798 406.826,348.317C405.22,346.71 403.612,345.103 402.005,343.495C400.524,342.015 398.225,344.312 399.707,345.793Z" style="fill:rgb(16,20,22);fill-rule:nonzero;"/>
            <path d="M466.162,376.145L472.981,376.145C475.072,376.145 475.076,372.895 472.981,372.895L466.162,372.895C464.071,372.895 464.067,376.145 466.162,376.145Z" style="fill:rgb(16,20,22);fill-rule:nonzero;"/>
            <path d="M429.106,332.27L429.106,339.089C429.106,341.18 432.356,341.183 432.356,339.089L432.356,332.27C432.356,330.178 429.106,330.175 429.106,332.27Z" style="fill:rgb(16,20,22);fill-rule:nonzero;"/>
            <path d="M411.66,363.069C422.507,363.218 433.084,368.736 437.14,379.202C437.391,379.851 437.948,380.432 438.706,380.395C443.036,380.184 447.866,380.428 451.829,382.347C452.764,382.8 453.916,382.448 454.216,381.375C457.534,369.498 452.156,356.699 440.808,351.453C429.431,346.194 416.199,350.405 409.298,360.643C408.605,361.67 409.521,363.112 410.701,363.088C411.021,363.082 411.34,363.075 411.66,363.069C413.749,363.027 413.756,359.777 411.66,359.819C411.34,359.825 411.021,359.832 410.701,359.838C411.169,360.653 411.637,361.468 412.104,362.283C418.172,353.281 430.073,349.722 439.928,354.623C449.557,359.41 453.936,370.294 451.082,380.512C451.878,380.188 452.673,379.864 453.469,379.54C448.971,377.362 443.641,376.905 438.706,377.145C439.229,377.543 439.751,377.94 440.273,378.338C435.675,366.472 424.082,359.99 411.66,359.819C409.568,359.79 409.567,363.04 411.66,363.069Z" style="fill:rgb(16,20,22);fill-rule:nonzero;"/>
            <path d="M440.055,377.1C439.605,377.102 439.155,377.117 438.706,377.145C439.229,377.543 439.751,377.94 440.273,378.338C435.36,365.659 422.094,358.795 408.809,359.943C395.414,361.101 384.199,370.109 379.617,382.637C380.139,382.24 380.661,381.842 381.184,381.444C371.279,380.349 360.844,388.961 362.882,399.559C364.773,409.392 379.008,412.386 387.097,413.96C401.504,416.765 416.845,416.703 431.377,414.893C442.017,413.567 457.652,411.342 462.354,399.938C464.619,394.444 463.085,388.28 459.242,383.9C454.373,378.353 447.08,377.158 440.055,377.1C437.963,377.083 437.961,380.333 440.055,380.35C445.581,380.395 451.396,381.012 455.666,384.89C459.52,388.39 461.406,393.933 459.273,398.866C454.974,408.809 440.128,410.593 430.786,411.716C419.715,413.047 408.289,413.23 397.189,412.152C388.378,411.296 377.177,409.824 369.842,404.277C365.561,401.04 364.977,396.032 367.528,391.387C370.288,386.362 375.613,384.078 381.184,384.694C381.926,384.776 382.523,384.124 382.75,383.501C386.813,372.397 396.95,364.267 408.809,363.193C420.515,362.133 432.749,367.871 437.14,379.202C437.391,379.851 437.948,380.432 438.706,380.395C439.155,380.367 439.605,380.352 440.055,380.35C442.144,380.311 442.15,377.061 440.055,377.1Z" style="fill:rgb(16,20,22);fill-rule:nonzero;"/>
        </g>
    </g>
</svg>
