<?xml version="1.0" encoding="UTF-8" standalone="no"?>
<!DOCTYPE svg PUBLIC "-//W3C//DTD SVG 1.1//EN" "http://www.w3.org/Graphics/SVG/1.1/DTD/svg11.dtd">
<svg width="100%" height="100%" viewBox="0 0 3000 3000" version="1.1" xmlns="http://www.w3.org/2000/svg" xmlns:xlink="http://www.w3.org/1999/xlink" xml:space="preserve" xmlns:serif="http://www.serif.com/" style="fill-rule:evenodd;clip-rule:evenodd;stroke-linejoin:round;stroke-miterlimit:2;">
    <g transform="matrix(20.5388,-11.8581,11.8581,20.5388,-10283.1,-6115.88)">
        <path d="M252.247,495.21C247.788,491.328 243.135,487.297 237.856,484.558C235.135,483.146 231.167,481.489 228.413,483.738C221.772,489.159 235.16,501.242 238.47,504.669C239.094,505.315 240.136,505.262 240.769,504.669C243.919,501.716 247.533,499.54 251.529,497.926C253.444,497.153 252.607,494.008 250.666,494.792C246.127,496.625 242.051,499.015 238.47,502.371L240.769,502.371C239.023,500.564 226.552,488.293 230.895,486.03C233.14,484.859 237.373,487.945 239.126,489.069C242.981,491.54 246.501,494.507 249.948,497.508C251.52,498.876 253.828,496.586 252.247,495.21Z" style="fill:rgb(16,20,22);fill-rule:nonzero;"/>
        <path d="M298.019,544.725C295.057,547.761 291.739,550.191 287.993,552.17C287.083,552.65 286.921,554.027 287.664,554.722C292.407,559.164 297.224,563.677 302.582,567.382C304.667,568.825 308.484,571.627 311.101,569.827C313.829,567.949 312.357,563.816 311.322,561.443C308.662,555.347 304.379,549.933 300.317,544.725C299.032,543.077 296.747,545.392 298.019,547.023C299.282,548.642 312.146,565.937 309.16,567.129C307.476,567.802 302.696,563.486 301.625,562.651C297.548,559.471 293.733,555.956 289.962,552.424C289.852,553.275 289.743,554.125 289.633,554.976C293.613,552.874 297.173,550.244 300.317,547.023C301.778,545.525 299.482,543.225 298.019,544.725Z" style="fill:rgb(16,20,22);fill-rule:nonzero;"/>
        <path d="M239.226,544.82C235.334,549.998 231.833,555.451 228.22,560.818C226.242,563.755 225.157,568.618 229.622,570.08C232.373,570.981 235.668,568.544 237.757,567.101C243.005,563.476 247.739,559.084 252.395,554.746C253.138,554.053 252.973,552.672 252.066,552.194C248.205,550.159 244.801,547.642 241.778,544.491C240.327,542.978 238.031,545.279 239.479,546.789C242.685,550.13 246.331,552.843 250.425,555C250.316,554.149 250.206,553.299 250.097,552.448C246.61,555.697 243.082,558.917 239.347,561.881C237.409,563.418 234.011,566.659 231.336,566.908C227.066,567.306 232.8,560.034 233.463,559.018C236.242,554.762 238.974,550.529 242.032,546.46C243.289,544.788 240.468,543.166 239.226,544.82Z" style="fill:rgb(16,20,22);fill-rule:nonzero;"/>
        <path d="M301.314,504.451C304.755,500.388 308.31,496.203 310.967,491.567C312.148,489.508 314.155,485.897 311.881,483.865C309.592,481.818 305.837,483.631 303.589,484.785C298.151,487.574 293.308,491.669 288.63,495.552C287.886,496.169 288.042,497.709 288.958,498.104C292.666,499.701 296.033,501.714 299.016,504.451C300.555,505.863 302.859,503.571 301.314,502.153C298.132,499.234 294.562,497.004 290.599,495.298C290.708,496.148 290.818,496.999 290.928,497.85C294.38,494.985 297.889,492.162 301.651,489.71C302.647,489.061 308.332,485.041 309.568,486.255C310.455,487.125 306.837,492.061 306.273,492.883C304.051,496.12 301.551,499.159 299.016,502.153C297.671,503.74 299.959,506.05 301.314,504.451Z" style="fill:rgb(16,20,22);fill-rule:nonzero;"/>
        <path d="M310.099,523.075C309.486,477.125 220.963,482.383 230.611,529.893C233.215,542.714 243.131,552.448 255.066,557.031C254.742,556.235 254.418,555.44 254.095,554.644C252.273,558.405 251.499,563.396 255.111,566.323C259.026,569.496 265.181,569.994 270.006,569.991C274.796,569.988 280.794,569.5 284.736,566.45C288.504,563.536 287.781,558.493 285.917,554.644C285.593,555.44 285.27,556.235 284.946,557.031C299.301,551.518 309.873,538.804 310.099,523.075C310.129,520.982 306.879,520.982 306.849,523.075C306.645,537.265 297.063,548.912 284.082,553.897C283.054,554.292 282.621,555.272 283.111,556.285C284.592,559.343 284.891,562.9 281.517,564.637C278.078,566.408 273.803,566.741 270.006,566.741C266.278,566.741 262.175,566.403 258.764,564.767C255.202,563.058 255.339,559.508 256.901,556.285C257.39,555.272 256.958,554.292 255.93,553.897C246.213,550.165 237.899,542.579 234.659,532.513C231.804,523.643 232.951,513.479 239.195,506.311C251.314,492.395 276.514,491.42 292.047,499.541C301.157,504.304 306.711,512.734 306.849,523.075C306.877,525.164 310.127,525.17 310.099,523.075Z" style="fill:rgb(16,20,22);fill-rule:nonzero;"/>
        <path d="M242.785,520.184C242.993,514.539 247.333,509.829 253.14,509.829C258.79,509.829 263.495,514.534 263.495,520.184C263.495,525.833 258.79,530.538 253.14,530.538C247.333,530.538 242.993,525.828 242.785,520.184C242.708,518.099 239.458,518.088 239.535,520.184C239.807,527.577 245.536,533.788 253.14,533.788C260.54,533.788 266.745,527.585 266.745,520.184C266.745,512.801 260.542,506.553 253.14,506.579C245.535,506.606 239.808,512.769 239.535,520.184C239.458,522.275 242.708,522.272 242.785,520.184Z" style="fill:rgb(16,20,22);fill-rule:nonzero;"/>
        <path d="M276.517,520.184C276.725,514.539 281.064,509.829 286.872,509.829C292.521,509.829 297.227,514.534 297.227,520.184C297.227,525.833 292.521,530.538 286.872,530.538C281.064,530.538 276.725,525.828 276.517,520.184C276.44,518.099 273.19,518.088 273.267,520.184C273.539,527.577 279.268,533.788 286.872,533.788C294.273,533.788 300.477,527.585 300.477,520.184C300.477,512.801 294.273,506.553 286.872,506.579C279.267,506.606 273.54,512.769 273.267,520.184C273.19,522.275 276.44,522.272 276.517,520.184Z" style="fill:rgb(16,20,22);fill-rule:nonzero;"/>
        <path d="M269.574,534.443C266.71,534.859 264.404,539.186 264.496,541.845C264.586,544.445 267.009,548.934 270.006,548.934C272.965,548.935 275.313,544.581 275.501,542.031C275.701,539.324 273.353,534.867 270.438,534.443C268.392,534.146 267.509,537.277 269.574,537.577C270.935,537.775 272.26,540.38 272.28,541.66C272.294,542.569 270.799,545.691 270.006,545.691C269.209,545.691 267.732,542.575 267.732,541.66C267.732,540.391 269.101,537.771 270.438,537.577C272.5,537.278 271.623,534.146 269.574,534.443Z" style="fill:rgb(16,20,22);fill-rule:nonzero;"/>
        <path d="M264.95,558.294C264.355,561.174 264.016,564.082 263.949,567.022C263.902,569.114 267.152,569.114 267.199,567.022C267.259,564.368 267.546,561.759 268.084,559.158C268.506,557.117 265.374,556.244 264.95,558.294Z" style="fill:rgb(16,20,22);fill-rule:nonzero;"/>
        <path d="M273.89,558.053C273.996,560.752 274.224,563.438 274.577,566.116C274.846,568.16 278.1,568.187 277.827,566.116C277.474,563.438 277.246,560.752 277.14,558.053C277.059,555.968 273.809,555.957 273.89,558.053Z" style="fill:rgb(16,20,22);fill-rule:nonzero;"/>
    </g>
</svg>
