<?xml version="1.0" encoding="UTF-8" standalone="no"?>
<!DOCTYPE svg PUBLIC "-//W3C//DTD SVG 1.1//EN" "http://www.w3.org/Graphics/SVG/1.1/DTD/svg11.dtd">
<svg width="100%" height="100%" viewBox="0 0 3000 3000" version="1.1" xmlns="http://www.w3.org/2000/svg" xmlns:xlink="http://www.w3.org/1999/xlink" xml:space="preserve" xmlns:serif="http://www.serif.com/" style="fill-rule:evenodd;clip-rule:evenodd;stroke-linejoin:round;stroke-miterlimit:2;">
    <g transform="matrix(26.77,0,0,26.77,-1717.08,-12680.5)">
        <g opacity="0.5">
            <path d="M160.25,503.172C165.361,503.035 166.104,510.635 160.921,510.932C158.792,511.054 156.938,509.413 156.816,507.28C156.68,504.902 158.488,503.41 160.682,503.114C162.745,502.835 161.866,499.703 159.818,499.98C155.954,500.502 153.128,504.021 153.621,507.93C154.099,511.728 157.541,514.498 161.355,514.156C165.156,513.815 168.05,510.41 167.826,506.609C167.591,502.624 164.124,499.818 160.25,499.922C158.162,499.978 158.154,503.228 160.25,503.172Z" style="fill:rgb(16,20,22);fill-rule:nonzero;"/>
            <path d="M96.534,493.915C96.232,495.601 91.423,496.616 89.923,497.017C89.38,497.162 88.933,497.609 88.788,498.151C88.462,499.371 86.995,504.662 86.119,504.662C85.254,504.662 83.761,499.316 83.45,498.151C83.305,497.609 82.858,497.162 82.315,497.017C81.095,496.691 75.805,495.223 75.805,494.347C75.805,493.482 81.15,491.989 82.315,491.678C82.858,491.533 83.305,491.086 83.45,490.543C83.775,489.324 85.243,484.033 86.119,484.033C86.984,484.033 88.477,489.379 88.788,490.543C88.933,491.086 89.38,491.533 89.923,491.678C91.423,492.079 96.232,493.094 96.534,494.779C96.902,496.835 100.035,495.964 99.668,493.915C99.07,490.579 93.523,489.275 90.787,488.544C91.166,488.922 91.544,489.301 91.922,489.679C91.213,487.026 89.718,480.723 86.119,480.741C82.512,480.758 81.032,486.999 80.316,489.679C80.694,489.301 81.072,488.922 81.451,488.544C78.798,489.253 72.495,490.749 72.512,494.347C72.53,497.955 78.772,499.435 81.451,500.15C81.072,499.772 80.694,499.394 80.316,499.016C81.024,501.668 82.521,507.972 86.119,507.954C89.726,507.936 91.206,501.695 91.922,499.016C91.544,499.394 91.166,499.772 90.787,500.15C93.517,499.421 99.07,498.117 99.668,494.779C100.035,492.734 96.902,491.857 96.534,493.915Z" style="fill:rgb(16,20,22);fill-rule:nonzero;"/>
            <path d="M121.152,551.943C120.891,549.57 121.007,546.827 122.674,544.928C125.114,542.146 128.763,543.131 131.421,544.971C131.862,545.275 132.622,545.277 133.062,544.971C138.567,541.138 144.458,537.243 149.128,532.378C151.437,529.974 152.991,527.037 149.426,524.896C147.684,523.85 145.62,523.383 143.679,522.865C139.9,521.854 136.116,520.919 132.302,520.05C130.483,519.636 128.658,519.238 126.85,518.783C124.049,518.079 124.939,515.493 126.059,513.403C127.901,509.963 129.976,506.599 132.019,503.274C134.072,499.936 136.53,496.712 137.914,493.013C139.235,489.482 137.353,486.954 133.435,487.914C129.743,488.819 126.323,491.557 123.291,493.778C120.284,495.981 117.437,498.415 114.606,500.838C107.705,506.745 100.786,512.792 94.535,519.396C93.364,520.634 90.911,522.669 90.91,524.581C90.909,527.816 94.829,527.916 97.082,528.218C101.417,528.799 105.796,529.27 110.051,530.312C111.568,530.684 113.47,531.03 114.729,532.026C115.306,532.482 115.038,532.032 115.043,532.282C115.056,532.829 114.549,533.553 114.313,534C110.629,540.971 103.978,546.801 98.647,552.491C95.718,555.616 92.711,558.715 90.085,562.103C88.959,563.558 86.613,566.3 88.276,568.164C90.302,570.437 95.216,567.491 97.196,566.565C105.233,562.809 112.854,558.085 120.351,553.367C121.013,552.95 121.225,552.27 121.098,551.532C121.096,551.525 121.095,551.518 121.094,551.512C120.739,549.455 117.606,550.327 117.96,552.375C117.961,552.382 117.962,552.389 117.964,552.396C118.212,551.784 118.461,551.172 118.71,550.561C112.444,554.505 106.095,558.354 99.527,561.78C97.403,562.889 95.247,564.004 93.009,564.869C92.437,565.09 91.272,565.226 90.783,565.6C91.024,565.415 90.163,565.774 90.189,565.686C90.281,565.383 91.08,566.665 90.962,566.657C91.011,566.661 94.085,562.314 94.576,561.748C96.921,559.046 99.388,556.449 101.835,553.839C106.83,548.513 112.266,543.213 116.259,537.059C117.311,535.438 118.87,533.096 118.072,531.097C117.127,528.729 113.663,527.89 111.489,527.322C107.765,526.348 103.911,525.867 100.101,525.364C98.652,525.172 97.194,525.018 95.754,524.775C95.252,524.691 94.76,524.592 94.262,524.491C94.082,524.455 93.847,525.347 94.25,524.709C95.591,522.59 97.672,520.793 99.441,519.045C102.371,516.151 105.394,513.351 108.446,510.588C113.922,505.63 119.446,500.431 125.5,496.172C126.581,495.412 127.688,494.682 128.785,493.946C129.929,493.18 133.586,490.314 135.066,490.937C135.804,491.247 130.688,499.325 129.884,500.58C128.326,503.011 126.846,505.506 125.415,508.016C123.859,510.745 121.537,513.723 121.445,516.993C121.381,519.262 122.486,520.786 124.603,521.554C127.894,522.747 131.595,523.203 134.999,523.997C138.071,524.714 141.129,525.503 144.167,526.354C145.129,526.623 147.069,526.96 147.786,527.703C148.487,528.429 148.454,528.179 147.633,529.207C143.443,534.459 136.858,538.379 131.421,542.164L133.062,542.164C129.599,539.769 125.068,538.909 121.498,541.615C118.345,544.004 117.491,548.205 117.902,551.943C118.128,554 121.381,554.023 121.152,551.943Z" style="fill:rgb(16,20,22);fill-rule:nonzero;"/>
            <path d="M137.47,578.685C139.128,578.552 140.635,577.304 141.946,576.388C144.13,574.861 146.239,573.224 148.331,571.574C153.111,567.803 157.981,563.557 160.513,557.893C162.788,552.806 162.638,545.615 156.767,543.084C148.685,539.601 142.078,547.964 138.128,553.747L140.935,553.747C138.207,547.577 133.58,538.865 125.451,539.994C118.977,540.893 116.97,547.873 118.153,553.472C119.452,559.621 123.54,564.832 127.587,569.473C129.31,571.448 131.054,573.41 132.888,575.285C134.008,576.431 135.407,578.188 137.038,578.627C139.06,579.172 139.922,576.038 137.902,575.493C137.189,575.301 136.027,573.841 135.401,573.206C134.076,571.861 132.804,570.464 131.547,569.057C129.082,566.299 126.678,563.521 124.689,560.388C122.07,556.263 118.266,547.756 123.663,544.073C130.58,539.354 136.042,550.668 138.128,555.387C138.663,556.595 140.322,556.284 140.935,555.387C142.833,552.607 144.812,549.79 147.53,547.747C150.365,545.616 154.92,544.331 157.464,547.616C161.417,552.719 156.028,559.945 152.526,563.554C150.209,565.941 147.661,568.015 145.041,570.053C143.568,571.199 142.082,572.33 140.557,573.405C139.899,573.869 138.117,575.383 137.47,575.435C135.399,575.602 135.381,578.853 137.47,578.685Z" style="fill:rgb(16,20,22);fill-rule:nonzero;"/>
        </g>
    </g>
</svg>
